<svg id="visual" viewBox="0 0 900 600" width="900" height="600" xmlns="http://www.w3.org/2000/svg" xmlns:xlink="http://www.w3.org/1999/xlink" version="1.1"><rect x="0" y="0" width="900" height="600" fill="#333"></rect><defs><linearGradient id="grad1_0" x1="33.3%" y1="0%" x2="100%" y2="100%"><stop offset="20%" stop-color="#333333" stop-opacity="1"></stop><stop offset="80%" stop-color="#333333" stop-opacity="1"></stop></linearGradient></defs><defs><linearGradient id="grad2_0" x1="0%" y1="0%" x2="66.7%" y2="100%"><stop offset="20%" stop-color="#333333" stop-opacity="1"></stop><stop offset="80%" stop-color="#333333" stop-opacity="1"></stop></linearGradient></defs><g transform="translate(900, 0)"><path d="M0 324.5C-26.2 301.5 -52.4 278.5 -89 273.9C-125.6 269.3 -172.5 283.2 -190.7 262.5C-208.9 241.9 -198.4 186.7 -214.4 155.8C-230.4 124.8 -273 118 -295.8 96.1C-318.6 74.2 -321.5 37.1 -324.5 0L0 0Z" fill="#ECB466"></path></g><g transform="translate(0, 600)"><path d="M0 -324.5C38.5 -327.7 77.1 -331 100.3 -308.6C123.5 -286.2 131.4 -238.3 156.9 -216C182.5 -193.8 225.6 -197.2 247.6 -179.9C269.5 -162.5 270.3 -124.3 279.6 -90.9C288.9 -57.4 306.7 -28.7 324.5 0L0 0Z" fill="#ECB466"></path></g></svg>