<svg id="visual" viewBox="0 0 900 600" width="900" height="600" xmlns="http://www.w3.org/2000/svg" xmlns:xlink="http://www.w3.org/1999/xlink" version="1.1"><path d="M0 55L13.7 61C27.3 67 54.7 79 82 85C109.3 91 136.7 91 163.8 88C191 85 218 79 245.2 70C272.3 61 299.7 49 327 53C354.3 57 381.7 77 409 86C436.3 95 463.7 93 491 83C518.3 73 545.7 55 573 51C600.3 47 627.7 57 654.8 65C682 73 709 79 736.2 81C763.3 83 790.7 81 818 73C845.3 65 872.7 51 886.3 44L900 37L900 0L886.3 0C872.7 0 845.3 0 818 0C790.7 0 763.3 0 736.2 0C709 0 682 0 654.8 0C627.7 0 600.3 0 573 0C545.7 0 518.3 0 491 0C463.7 0 436.3 0 409 0C381.7 0 354.3 0 327 0C299.7 0 272.3 0 245.2 0C218 0 191 0 163.8 0C136.7 0 109.3 0 82 0C54.7 0 27.3 0 13.7 0L0 0Z" fill="#333333"></path><path d="M0 133L13.7 136C27.3 139 54.7 145 82 155C109.3 165 136.7 179 163.8 183C191 187 218 181 245.2 180C272.3 179 299.7 183 327 184C354.3 185 381.7 183 409 184C436.3 185 463.7 189 491 177C518.3 165 545.7 137 573 129C600.3 121 627.7 133 654.8 144C682 155 709 165 736.2 168C763.3 171 790.7 167 818 168C845.3 169 872.7 175 886.3 178L900 181L900 35L886.3 42C872.7 49 845.3 63 818 71C790.7 79 763.3 81 736.2 79C709 77 682 71 654.8 63C627.7 55 600.3 45 573 49C545.7 53 518.3 71 491 81C463.7 91 436.3 93 409 84C381.7 75 354.3 55 327 51C299.7 47 272.3 59 245.2 68C218 77 191 83 163.8 86C136.7 89 109.3 89 82 83C54.7 77 27.3 65 13.7 59L0 53Z" fill="#282828"></path><path d="M0 367L13.7 356C27.3 345 54.7 323 82 324C109.3 325 136.7 349 163.8 349C191 349 218 325 245.2 329C272.3 333 299.7 365 327 368C354.3 371 381.7 345 409 340C436.3 335 463.7 351 491 349C518.3 347 545.7 327 573 315C600.3 303 627.7 299 654.8 314C682 329 709 363 736.2 376C763.3 389 790.7 381 818 371C845.3 361 872.7 349 886.3 343L900 337L900 179L886.3 176C872.7 173 845.3 167 818 166C790.7 165 763.3 169 736.2 166C709 163 682 153 654.8 142C627.7 131 600.3 119 573 127C545.7 135 518.3 163 491 175C463.7 187 436.3 183 409 182C381.7 181 354.3 183 327 182C299.7 181 272.3 177 245.2 178C218 179 191 185 163.8 181C136.7 177 109.3 163 82 153C54.7 143 27.3 137 13.7 134L0 131Z" fill="#1d1d1d"></path><path d="M0 451L13.7 437C27.3 423 54.7 395 82 396C109.3 397 136.7 427 163.8 428C191 429 218 401 245.2 403C272.3 405 299.7 437 327 436C354.3 435 381.7 401 409 397C436.3 393 463.7 419 491 423C518.3 427 545.7 409 573 401C600.3 393 627.7 395 654.8 412C682 429 709 461 736.2 465C763.3 469 790.7 445 818 439C845.3 433 872.7 445 886.3 451L900 457L900 335L886.3 341C872.7 347 845.3 359 818 369C790.7 379 763.3 387 736.2 374C709 361 682 327 654.8 312C627.7 297 600.3 301 573 313C545.7 325 518.3 345 491 347C463.7 349 436.3 333 409 338C381.7 343 354.3 369 327 366C299.7 363 272.3 331 245.2 327C218 323 191 347 163.8 347C136.7 347 109.3 323 82 322C54.7 321 27.3 343 13.7 354L0 365Z" fill="#121212"></path><path d="M0 601L13.7 601C27.3 601 54.7 601 82 601C109.3 601 136.7 601 163.8 601C191 601 218 601 245.2 601C272.3 601 299.7 601 327 601C354.3 601 381.7 601 409 601C436.3 601 463.7 601 491 601C518.3 601 545.7 601 573 601C600.3 601 627.7 601 654.8 601C682 601 709 601 736.2 601C763.3 601 790.7 601 818 601C845.3 601 872.7 601 886.3 601L900 601L900 455L886.3 449C872.7 443 845.3 431 818 437C790.7 443 763.3 467 736.2 463C709 459 682 427 654.8 410C627.7 393 600.3 391 573 399C545.7 407 518.3 425 491 421C463.7 417 436.3 391 409 395C381.7 399 354.3 433 327 434C299.7 435 272.3 403 245.2 401C218 399 191 427 163.8 426C136.7 425 109.3 395 82 394C54.7 393 27.3 421 13.7 435L0 449Z" fill="#000000"></path></svg>