<svg id="visual" viewBox="0 0 900 600" width="900" height="600" xmlns="http://www.w3.org/2000/svg" xmlns:xlink="http://www.w3.org/1999/xlink" version="1.1"><path d="M0 73L13.7 71C27.3 69 54.7 65 82 65C109.3 65 136.7 69 163.8 74C191 79 218 85 245.2 90C272.3 95 299.7 99 327 100C354.3 101 381.7 99 409 94C436.3 89 463.7 81 491 79C518.3 77 545.7 81 573 81C600.3 81 627.7 77 654.8 76C682 75 709 77 736.2 83C763.3 89 790.7 99 818 99C845.3 99 872.7 89 886.3 84L900 79L900 0L886.3 0C872.7 0 845.3 0 818 0C790.7 0 763.3 0 736.2 0C709 0 682 0 654.8 0C627.7 0 600.3 0 573 0C545.7 0 518.3 0 491 0C463.7 0 436.3 0 409 0C381.7 0 354.3 0 327 0C299.7 0 272.3 0 245.2 0C218 0 191 0 163.8 0C136.7 0 109.3 0 82 0C54.7 0 27.3 0 13.7 0L0 0Z" fill="#333333"></path><path d="M0 217L13.7 222C27.3 227 54.7 237 82 249C109.3 261 136.7 275 163.8 270C191 265 218 241 245.2 238C272.3 235 299.7 253 327 263C354.3 273 381.7 275 409 262C436.3 249 463.7 221 491 219C518.3 217 545.7 241 573 247C600.3 253 627.7 241 654.8 238C682 235 709 241 736.2 246C763.3 251 790.7 255 818 262C845.3 269 872.7 279 886.3 284L900 289L900 77L886.3 82C872.7 87 845.3 97 818 97C790.7 97 763.3 87 736.2 81C709 75 682 73 654.8 74C627.7 75 600.3 79 573 79C545.7 79 518.3 75 491 77C463.7 79 436.3 87 409 92C381.7 97 354.3 99 327 98C299.7 97 272.3 93 245.2 88C218 83 191 77 163.8 72C136.7 67 109.3 63 82 63C54.7 63 27.3 67 13.7 69L0 71Z" fill="#2a2a2a"></path><path d="M0 397L13.7 407C27.3 417 54.7 437 82 440C109.3 443 136.7 429 163.8 420C191 411 218 407 245.2 408C272.3 409 299.7 415 327 417C354.3 419 381.7 417 409 413C436.3 409 463.7 403 491 408C518.3 413 545.7 429 573 427C600.3 425 627.7 405 654.8 410C682 415 709 445 736.2 454C763.3 463 790.7 451 818 439C845.3 427 872.7 415 886.3 409L900 403L900 287L886.3 282C872.7 277 845.3 267 818 260C790.7 253 763.3 249 736.2 244C709 239 682 233 654.8 236C627.7 239 600.3 251 573 245C545.7 239 518.3 215 491 217C463.7 219 436.3 247 409 260C381.7 273 354.3 271 327 261C299.7 251 272.3 233 245.2 236C218 239 191 263 163.8 268C136.7 273 109.3 259 82 247C54.7 235 27.3 225 13.7 220L0 215Z" fill="#222222"></path><path d="M0 541L13.7 540C27.3 539 54.7 537 82 539C109.3 541 136.7 547 163.8 544C191 541 218 529 245.2 526C272.3 523 299.7 529 327 534C354.3 539 381.7 543 409 542C436.3 541 463.7 535 491 534C518.3 533 545.7 537 573 536C600.3 535 627.7 529 654.8 531C682 533 709 543 736.2 548C763.3 553 790.7 553 818 550C845.3 547 872.7 541 886.3 538L900 535L900 401L886.3 407C872.7 413 845.3 425 818 437C790.7 449 763.3 461 736.2 452C709 443 682 413 654.8 408C627.7 403 600.3 423 573 425C545.7 427 518.3 411 491 406C463.7 401 436.3 407 409 411C381.7 415 354.3 417 327 415C299.7 413 272.3 407 245.2 406C218 405 191 409 163.8 418C136.7 427 109.3 441 82 438C54.7 435 27.3 415 13.7 405L0 395Z" fill="#1a1a1a"></path><path d="M0 601L13.7 601C27.3 601 54.7 601 82 601C109.3 601 136.7 601 163.8 601C191 601 218 601 245.2 601C272.3 601 299.7 601 327 601C354.3 601 381.7 601 409 601C436.3 601 463.7 601 491 601C518.3 601 545.7 601 573 601C600.3 601 627.7 601 654.8 601C682 601 709 601 736.2 601C763.3 601 790.7 601 818 601C845.3 601 872.7 601 886.3 601L900 601L900 533L886.3 536C872.7 539 845.3 545 818 548C790.7 551 763.3 551 736.2 546C709 541 682 531 654.8 529C627.7 527 600.3 533 573 534C545.7 535 518.3 531 491 532C463.7 533 436.3 539 409 540C381.7 541 354.3 537 327 532C299.7 527 272.3 521 245.2 524C218 527 191 539 163.8 542C136.7 545 109.3 539 82 537C54.7 535 27.3 537 13.7 538L0 539Z" fill="#111111"></path></svg>