<svg id="visual" viewBox="0 0 900 300" width="900" height="300" xmlns="http://www.w3.org/2000/svg" xmlns:xlink="http://www.w3.org/1999/xlink" version="1.1"><rect x="0" y="0" width="900" height="300" fill="#ECB466"></rect><path d="M0 173L25 181C50 189 100 205 150 217.3C200 229.7 250 238.3 300 230.7C350 223 400 199 450 186.3C500 173.7 550 172.3 600 173C650 173.7 700 176.3 750 177.8C800 179.3 850 179.7 875 179.8L900 180L900 0L875 0C850 0 800 0 750 0C700 0 650 0 600 0C550 0 500 0 450 0C400 0 350 0 300 0C250 0 200 0 150 0C100 0 50 0 25 0L0 0Z" fill="#ecb466"></path><path d="M0 152L25 160.2C50 168.3 100 184.7 150 192.7C200 200.7 250 200.3 300 194.8C350 189.3 400 178.7 450 174.7C500 170.7 550 173.3 600 170.7C650 168 700 160 750 160.5C800 161 850 170 875 174.5L900 179L900 0L875 0C850 0 800 0 750 0C700 0 650 0 600 0C550 0 500 0 450 0C400 0 350 0 300 0C250 0 200 0 150 0C100 0 50 0 25 0L0 0Z" fill="#bb915a"></path><path d="M0 138L25 133.7C50 129.3 100 120.7 150 116.3C200 112 250 112 300 109.8C350 107.7 400 103.3 450 102.2C500 101 550 103 600 107.2C650 111.3 700 117.7 750 121.3C800 125 850 126 875 126.5L900 127L900 0L875 0C850 0 800 0 750 0C700 0 650 0 600 0C550 0 500 0 450 0C400 0 350 0 300 0C250 0 200 0 150 0C100 0 50 0 25 0L0 0Z" fill="#8c704d"></path><path d="M0 104L25 97.5C50 91 100 78 150 76.2C200 74.3 250 83.7 300 91.7C350 99.7 400 106.3 450 110.2C500 114 550 115 600 114C650 113 700 110 750 108.3C800 106.7 850 106.3 875 106.2L900 106L900 0L875 0C850 0 800 0 750 0C700 0 650 0 600 0C550 0 500 0 450 0C400 0 350 0 300 0C250 0 200 0 150 0C100 0 50 0 25 0L0 0Z" fill="#5f5040"></path><path d="M0 42L25 45C50 48 100 54 150 57.7C200 61.3 250 62.7 300 58.8C350 55 400 46 450 45.8C500 45.7 550 54.3 600 59C650 63.7 700 64.3 750 62C800 59.7 850 54.3 875 51.7L900 49L900 0L875 0C850 0 800 0 750 0C700 0 650 0 600 0C550 0 500 0 450 0C400 0 350 0 300 0C250 0 200 0 150 0C100 0 50 0 25 0L0 0Z" fill="#333333"></path></svg>