<svg id="visual" viewBox="0 0 900 300" width="900" height="300" xmlns="http://www.w3.org/2000/svg" xmlns:xlink="http://www.w3.org/1999/xlink" version="1.1"><rect x="0" y="0" width="900" height="300" fill="#ECB466"></rect><path d="M0 251L21.5 248.8C43 246.7 86 242.3 128.8 236C171.7 229.7 214.3 221.3 257.2 226.5C300 231.7 343 250.3 385.8 257.3C428.7 264.3 471.3 259.7 514.2 251.3C557 243 600 231 642.8 224.5C685.7 218 728.3 217 771.2 218.8C814 220.7 857 225.3 878.5 227.7L900 230L900 0L878.5 0C857 0 814 0 771.2 0C728.3 0 685.7 0 642.8 0C600 0 557 0 514.2 0C471.3 0 428.7 0 385.8 0C343 0 300 0 257.2 0C214.3 0 171.7 0 128.8 0C86 0 43 0 21.5 0L0 0Z" fill="#ecb466"></path><path d="M0 164L21.5 167.7C43 171.3 86 178.7 128.8 184.2C171.7 189.7 214.3 193.3 257.2 196.2C300 199 343 201 385.8 195.3C428.7 189.7 471.3 176.3 514.2 174.7C557 173 600 183 642.8 186.7C685.7 190.3 728.3 187.7 771.2 187C814 186.3 857 187.7 878.5 188.3L900 189L900 0L878.5 0C857 0 814 0 771.2 0C728.3 0 685.7 0 642.8 0C600 0 557 0 514.2 0C471.3 0 428.7 0 385.8 0C343 0 300 0 257.2 0C214.3 0 171.7 0 128.8 0C86 0 43 0 21.5 0L0 0Z" fill="#bb915a"></path><path d="M0 147L21.5 142.8C43 138.7 86 130.3 128.8 128.5C171.7 126.7 214.3 131.3 257.2 133.5C300 135.7 343 135.3 385.8 135.7C428.7 136 471.3 137 514.2 142.2C557 147.3 600 156.7 642.8 154.5C685.7 152.3 728.3 138.7 771.2 131C814 123.3 857 121.7 878.5 120.8L900 120L900 0L878.5 0C857 0 814 0 771.2 0C728.3 0 685.7 0 642.8 0C600 0 557 0 514.2 0C471.3 0 428.7 0 385.8 0C343 0 300 0 257.2 0C214.3 0 171.7 0 128.8 0C86 0 43 0 21.5 0L0 0Z" fill="#8c704d"></path><path d="M0 110L21.5 111C43 112 86 114 128.8 112.8C171.7 111.7 214.3 107.3 257.2 104.3C300 101.3 343 99.7 385.8 99.2C428.7 98.7 471.3 99.3 514.2 95C557 90.7 600 81.3 642.8 77.5C685.7 73.7 728.3 75.3 771.2 78C814 80.7 857 84.3 878.5 86.2L900 88L900 0L878.5 0C857 0 814 0 771.2 0C728.3 0 685.7 0 642.8 0C600 0 557 0 514.2 0C471.3 0 428.7 0 385.8 0C343 0 300 0 257.2 0C214.3 0 171.7 0 128.8 0C86 0 43 0 21.5 0L0 0Z" fill="#5f5040"></path><path d="M0 31L21.5 36.3C43 41.7 86 52.3 128.8 53C171.7 53.7 214.3 44.3 257.2 39.7C300 35 343 35 385.8 33.8C428.7 32.7 471.3 30.3 514.2 35.2C557 40 600 52 642.8 57.2C685.7 62.3 728.3 60.7 771.2 56C814 51.3 857 43.7 878.5 39.8L900 36L900 0L878.5 0C857 0 814 0 771.2 0C728.3 0 685.7 0 642.8 0C600 0 557 0 514.2 0C471.3 0 428.7 0 385.8 0C343 0 300 0 257.2 0C214.3 0 171.7 0 128.8 0C86 0 43 0 21.5 0L0 0Z" fill="#333333"></path></svg>