<svg id="visual" viewBox="0 0 900 300" width="900" height="300" xmlns="http://www.w3.org/2000/svg" xmlns:xlink="http://www.w3.org/1999/xlink" version="1.1"><rect x="0" y="0" width="900" height="300" fill="#ECB466"></rect><path d="M0 62L25 65.7C50 69.3 100 76.7 150 80C200 83.3 250 82.7 300 84.3C350 86 400 90 450 88C500 86 550 78 600 73C650 68 700 66 750 72.2C800 78.3 850 92.7 875 99.8L900 107L900 301L875 301C850 301 800 301 750 301C700 301 650 301 600 301C550 301 500 301 450 301C400 301 350 301 300 301C250 301 200 301 150 301C100 301 50 301 25 301L0 301Z" fill="#ecb466"></path><path d="M0 128L25 123.7C50 119.3 100 110.7 150 108.7C200 106.7 250 111.3 300 120.3C350 129.3 400 142.7 450 141.8C500 141 550 126 600 117.2C650 108.3 700 105.7 750 105.3C800 105 850 107 875 108L900 109L900 301L875 301C850 301 800 301 750 301C700 301 650 301 600 301C550 301 500 301 450 301C400 301 350 301 300 301C250 301 200 301 150 301C100 301 50 301 25 301L0 301Z" fill="#bb915a"></path><path d="M0 195L25 186.2C50 177.3 100 159.7 150 160.7C200 161.7 250 181.3 300 184.8C350 188.3 400 175.7 450 172.2C500 168.7 550 174.3 600 178.7C650 183 700 186 750 186.3C800 186.7 850 184.3 875 183.2L900 182L900 301L875 301C850 301 800 301 750 301C700 301 650 301 600 301C550 301 500 301 450 301C400 301 350 301 300 301C250 301 200 301 150 301C100 301 50 301 25 301L0 301Z" fill="#8c704d"></path><path d="M0 219L25 213.3C50 207.7 100 196.3 150 193.3C200 190.3 250 195.7 300 195.5C350 195.3 400 189.7 450 193.5C500 197.3 550 210.7 600 212.8C650 215 700 206 750 205.8C800 205.7 850 214.3 875 218.7L900 223L900 301L875 301C850 301 800 301 750 301C700 301 650 301 600 301C550 301 500 301 450 301C400 301 350 301 300 301C250 301 200 301 150 301C100 301 50 301 25 301L0 301Z" fill="#5f5040"></path><path d="M0 268L25 268.7C50 269.3 100 270.7 150 269C200 267.3 250 262.7 300 256.2C350 249.7 400 241.3 450 236.5C500 231.7 550 230.3 600 236.3C650 242.3 700 255.7 750 260.8C800 266 850 263 875 261.5L900 260L900 301L875 301C850 301 800 301 750 301C700 301 650 301 600 301C550 301 500 301 450 301C400 301 350 301 300 301C250 301 200 301 150 301C100 301 50 301 25 301L0 301Z" fill="#333333"></path></svg>