<svg id="visual" viewBox="0 0 900 300" width="900" height="300" xmlns="http://www.w3.org/2000/svg" xmlns:xlink="http://www.w3.org/1999/xlink" version="1.1"><rect x="0" y="0" width="900" height="300" fill="#ECB466"></rect><path d="M0 214L25 213.5C50 213 100 212 150 214.5C200 217 250 223 300 219.8C350 216.7 400 204.3 450 207.8C500 211.3 550 230.7 600 239.2C650 247.7 700 245.3 750 244.5C800 243.7 850 244.3 875 244.7L900 245L900 0L875 0C850 0 800 0 750 0C700 0 650 0 600 0C550 0 500 0 450 0C400 0 350 0 300 0C250 0 200 0 150 0C100 0 50 0 25 0L0 0Z" fill="#ecb466"></path><path d="M0 131L25 139.2C50 147.3 100 163.7 150 167.5C200 171.3 250 162.7 300 157.8C350 153 400 152 450 156.8C500 161.7 550 172.3 600 171.5C650 170.7 700 158.3 750 153C800 147.7 850 149.3 875 150.2L900 151L900 0L875 0C850 0 800 0 750 0C700 0 650 0 600 0C550 0 500 0 450 0C400 0 350 0 300 0C250 0 200 0 150 0C100 0 50 0 25 0L0 0Z" fill="#bb915a"></path><path d="M0 112L25 113.8C50 115.7 100 119.3 150 119.3C200 119.3 250 115.7 300 118.8C350 122 400 132 450 132.5C500 133 550 124 600 120.7C650 117.3 700 119.7 750 122.5C800 125.3 850 128.7 875 130.3L900 132L900 0L875 0C850 0 800 0 750 0C700 0 650 0 600 0C550 0 500 0 450 0C400 0 350 0 300 0C250 0 200 0 150 0C100 0 50 0 25 0L0 0Z" fill="#8c704d"></path><path d="M0 88L25 93C50 98 100 108 150 105.2C200 102.3 250 86.7 300 81.3C350 76 400 81 450 80.8C500 80.7 550 75.3 600 72.7C650 70 700 70 750 74C800 78 850 86 875 90L900 94L900 0L875 0C850 0 800 0 750 0C700 0 650 0 600 0C550 0 500 0 450 0C400 0 350 0 300 0C250 0 200 0 150 0C100 0 50 0 25 0L0 0Z" fill="#5f5040"></path><path d="M0 30L25 34.2C50 38.3 100 46.7 150 50.7C200 54.7 250 54.3 300 51.7C350 49 400 44 450 45.7C500 47.3 550 55.7 600 60.3C650 65 700 66 750 61C800 56 850 45 875 39.5L900 34L900 0L875 0C850 0 800 0 750 0C700 0 650 0 600 0C550 0 500 0 450 0C400 0 350 0 300 0C250 0 200 0 150 0C100 0 50 0 25 0L0 0Z" fill="#333333"></path></svg>