<svg id="visual" viewBox="0 0 900 300" width="900" height="300" xmlns="http://www.w3.org/2000/svg" xmlns:xlink="http://www.w3.org/1999/xlink" version="1.1"><rect x="0" y="0" width="900" height="300" fill="#ECB466"></rect><path d="M0 47L21.5 49.2C43 51.3 86 55.7 128.8 62C171.7 68.3 214.3 76.7 257.2 71.5C300 66.3 343 47.7 385.8 40.7C428.7 33.7 471.3 38.3 514.2 46.7C557 55 600 67 642.8 73.5C685.7 80 728.3 81 771.2 79.2C814 77.3 857 72.7 878.5 70.3L900 68L900 301L878.5 301C857 301 814 301 771.2 301C728.3 301 685.7 301 642.8 301C600 301 557 301 514.2 301C471.3 301 428.7 301 385.8 301C343 301 300 301 257.2 301C214.3 301 171.7 301 128.8 301C86 301 43 301 21.5 301L0 301Z" fill="#ecb466"></path><path d="M0 134L21.5 130.3C43 126.7 86 119.3 128.8 113.8C171.7 108.3 214.3 104.7 257.2 101.8C300 99 343 97 385.8 102.7C428.7 108.3 471.3 121.7 514.2 123.3C557 125 600 115 642.8 111.3C685.7 107.7 728.3 110.3 771.2 111C814 111.7 857 110.3 878.5 109.7L900 109L900 301L878.5 301C857 301 814 301 771.2 301C728.3 301 685.7 301 642.8 301C600 301 557 301 514.2 301C471.3 301 428.7 301 385.8 301C343 301 300 301 257.2 301C214.3 301 171.7 301 128.8 301C86 301 43 301 21.5 301L0 301Z" fill="#bb915a"></path><path d="M0 151L21.5 155.2C43 159.3 86 167.7 128.8 169.5C171.7 171.3 214.3 166.7 257.2 164.5C300 162.3 343 162.7 385.8 162.3C428.7 162 471.3 161 514.2 155.8C557 150.7 600 141.3 642.8 143.5C685.7 145.7 728.3 159.3 771.2 167C814 174.7 857 176.3 878.5 177.2L900 178L900 301L878.5 301C857 301 814 301 771.2 301C728.3 301 685.7 301 642.8 301C600 301 557 301 514.2 301C471.3 301 428.7 301 385.8 301C343 301 300 301 257.2 301C214.3 301 171.7 301 128.8 301C86 301 43 301 21.5 301L0 301Z" fill="#8c704d"></path><path d="M0 188L21.5 187C43 186 86 184 128.8 185.2C171.7 186.3 214.3 190.7 257.2 193.7C300 196.7 343 198.3 385.8 198.8C428.7 199.3 471.3 198.7 514.2 203C557 207.3 600 216.7 642.8 220.5C685.7 224.3 728.3 222.7 771.2 220C814 217.3 857 213.7 878.5 211.8L900 210L900 301L878.5 301C857 301 814 301 771.2 301C728.3 301 685.7 301 642.8 301C600 301 557 301 514.2 301C471.3 301 428.7 301 385.8 301C343 301 300 301 257.2 301C214.3 301 171.7 301 128.8 301C86 301 43 301 21.5 301L0 301Z" fill="#5f5040"></path><path d="M0 267L21.5 261.7C43 256.3 86 245.7 128.8 245C171.7 244.3 214.3 253.7 257.2 258.3C300 263 343 263 385.8 264.2C428.7 265.3 471.3 267.7 514.2 262.8C557 258 600 246 642.8 240.8C685.7 235.7 728.3 237.3 771.2 242C814 246.7 857 254.3 878.5 258.2L900 262L900 301L878.5 301C857 301 814 301 771.2 301C728.3 301 685.7 301 642.8 301C600 301 557 301 514.2 301C471.3 301 428.7 301 385.8 301C343 301 300 301 257.2 301C214.3 301 171.7 301 128.8 301C86 301 43 301 21.5 301L0 301Z" fill="#333333"></path></svg>